<mxfile host="app.diagrams.net" modified="2020-04-04T00:25:52.909Z" agent="5.0 (X11; Linux x86_64) AppleWebKit/537.36 (KHTML, like Gecko) Chrome/80.0.3987.87 Safari/537.36" etag="ORYOYTy5kidcp4l80tNG" version="12.9.7" type="github">
  <diagram id="C5RBs43oDa-KdzZeNtuy" name="Page-1">
    <mxGraphModel dx="1021" dy="536" grid="1" gridSize="10" guides="1" tooltips="1" connect="1" arrows="1" fold="1" page="1" pageScale="1" pageWidth="827" pageHeight="1169" math="0" shadow="0">
      <root>
        <mxCell id="WIyWlLk6GJQsqaUBKTNV-0" />
        <mxCell id="WIyWlLk6GJQsqaUBKTNV-1" parent="WIyWlLk6GJQsqaUBKTNV-0" />
        <mxCell id="8IQMpSymh2OKNN8EFJxy-3" style="edgeStyle=orthogonalEdgeStyle;rounded=0;orthogonalLoop=1;jettySize=auto;html=1;exitX=0.5;exitY=1;exitDx=0;exitDy=0;entryX=0.488;entryY=0.18;entryDx=0;entryDy=0;entryPerimeter=0;fontSize=17;" edge="1" parent="WIyWlLk6GJQsqaUBKTNV-1" source="8IQMpSymh2OKNN8EFJxy-0" target="8IQMpSymh2OKNN8EFJxy-1">
          <mxGeometry relative="1" as="geometry" />
        </mxCell>
        <mxCell id="8IQMpSymh2OKNN8EFJxy-0" value="INICIO" style="ellipse;whiteSpace=wrap;html=1;fontSize=17;" vertex="1" parent="WIyWlLk6GJQsqaUBKTNV-1">
          <mxGeometry x="240" y="80" width="110" height="30" as="geometry" />
        </mxCell>
        <mxCell id="8IQMpSymh2OKNN8EFJxy-12" style="edgeStyle=orthogonalEdgeStyle;rounded=0;orthogonalLoop=1;jettySize=auto;html=1;exitX=0.5;exitY=1;exitDx=0;exitDy=0;entryX=0.5;entryY=0;entryDx=0;entryDy=0;fontSize=17;" edge="1" parent="WIyWlLk6GJQsqaUBKTNV-1" source="8IQMpSymh2OKNN8EFJxy-1" target="8IQMpSymh2OKNN8EFJxy-6">
          <mxGeometry relative="1" as="geometry" />
        </mxCell>
        <mxCell id="8IQMpSymh2OKNN8EFJxy-1" value="val0:int" style="html=1;strokeWidth=2;shape=manualInput;whiteSpace=wrap;rounded=1;size=26;arcSize=48;fontSize=17;align=center;verticalAlign=bottom;" vertex="1" parent="WIyWlLk6GJQsqaUBKTNV-1">
          <mxGeometry x="255" y="140" width="80" height="50" as="geometry" />
        </mxCell>
        <mxCell id="8IQMpSymh2OKNN8EFJxy-23" style="edgeStyle=orthogonalEdgeStyle;rounded=0;orthogonalLoop=1;jettySize=auto;html=1;exitX=1;exitY=0.5;exitDx=0;exitDy=0;entryX=0;entryY=0;entryDx=51;entryDy=0;entryPerimeter=0;fontSize=17;" edge="1" parent="WIyWlLk6GJQsqaUBKTNV-1" source="8IQMpSymh2OKNN8EFJxy-6" target="8IQMpSymh2OKNN8EFJxy-19">
          <mxGeometry relative="1" as="geometry" />
        </mxCell>
        <mxCell id="8IQMpSymh2OKNN8EFJxy-24" style="edgeStyle=orthogonalEdgeStyle;rounded=0;orthogonalLoop=1;jettySize=auto;html=1;exitX=0;exitY=0.5;exitDx=0;exitDy=0;entryX=0;entryY=0;entryDx=48.96875;entryDy=0;entryPerimeter=0;fontSize=17;" edge="1" parent="WIyWlLk6GJQsqaUBKTNV-1" source="8IQMpSymh2OKNN8EFJxy-6" target="8IQMpSymh2OKNN8EFJxy-16">
          <mxGeometry relative="1" as="geometry" />
        </mxCell>
        <mxCell id="8IQMpSymh2OKNN8EFJxy-6" value="val0 % 2 == 0" style="rhombus;whiteSpace=wrap;html=1;fontSize=17;align=center;" vertex="1" parent="WIyWlLk6GJQsqaUBKTNV-1">
          <mxGeometry x="225" y="240" width="140" height="58" as="geometry" />
        </mxCell>
        <mxCell id="8IQMpSymh2OKNN8EFJxy-26" style="edgeStyle=orthogonalEdgeStyle;rounded=0;orthogonalLoop=1;jettySize=auto;html=1;exitX=0;exitY=0;exitDx=48.96875;exitDy=40;exitPerimeter=0;fontSize=17;entryX=0;entryY=0.5;entryDx=0;entryDy=0;" edge="1" parent="WIyWlLk6GJQsqaUBKTNV-1" source="8IQMpSymh2OKNN8EFJxy-16" target="8IQMpSymh2OKNN8EFJxy-20">
          <mxGeometry relative="1" as="geometry">
            <mxPoint x="280" y="470" as="targetPoint" />
          </mxGeometry>
        </mxCell>
        <mxCell id="8IQMpSymh2OKNN8EFJxy-16" value="Impar" style="shape=display;whiteSpace=wrap;html=1;strokeColor=#000000;gradientColor=#ffffff;fontSize=17;align=center;size=0.3875;" vertex="1" parent="WIyWlLk6GJQsqaUBKTNV-1">
          <mxGeometry x="145" y="360" width="85" height="40" as="geometry" />
        </mxCell>
        <mxCell id="8IQMpSymh2OKNN8EFJxy-17" value="&lt;span style=&quot;color: rgba(0 , 0 , 0 , 0) ; font-family: monospace ; font-size: 0px&quot;&gt;%3CmxGraphModel%3E%3Croot%3E%3CmxCell%20id%3D%220%22%2F%3E%3CmxCell%20id%3D%221%22%20parent%3D%220%22%2F%3E%3CmxCell%20id%3D%222%22%20value%3D%22%22%20style%3D%22shape%3Ddisplay%3BwhiteSpace%3Dwrap%3Bhtml%3D1%3BstrokeColor%3D%23000000%3BgradientColor%3D%23ffffff%3BfontSize%3D17%3Balign%3Dcenter%3B%22%20vertex%3D%221%22%20parent%3D%221%22%3E%3CmxGeometry%20x%3D%22145%22%20y%3D%22360%22%20width%3D%2280%22%20height%3D%2240%22%20as%3D%22geometry%22%2F%3E%3C%2FmxCell%3E%3C%2Froot%3E%3C%2FmxGraphModel%3E&lt;/span&gt;" style="text;html=1;align=center;verticalAlign=middle;resizable=0;points=[];autosize=1;fontSize=17;" vertex="1" parent="WIyWlLk6GJQsqaUBKTNV-1">
          <mxGeometry x="451" y="372" width="20" height="30" as="geometry" />
        </mxCell>
        <mxCell id="8IQMpSymh2OKNN8EFJxy-18" value="&lt;span style=&quot;color: rgba(0 , 0 , 0 , 0) ; font-family: monospace ; font-size: 0px&quot;&gt;%3CmxGraphModel%3E%3Croot%3E%3CmxCell%20id%3D%220%22%2F%3E%3CmxCell%20id%3D%221%22%20parent%3D%220%22%2F%3E%3CmxCell%20id%3D%222%22%20value%3D%22%22%20style%3D%22shape%3Ddisplay%3BwhiteSpace%3Dwrap%3Bhtml%3D1%3BstrokeColor%3D%23000000%3BgradientColor%3D%23ffffff%3BfontSize%3D17%3Balign%3Dcenter%3B%22%20vertex%3D%221%22%20parent%3D%221%22%3E%3CmxGeometry%20x%3D%22145%22%20y%3D%22360%22%20width%3D%2280%22%20height%3D%2240%22%20as%3D%22geometry%22%2F%3E%3C%2FmxCell%3E%3C%2Froot%3E%3C%2FmxGraphModel%3E&lt;/span&gt;" style="text;html=1;align=center;verticalAlign=middle;resizable=0;points=[];autosize=1;fontSize=17;" vertex="1" parent="WIyWlLk6GJQsqaUBKTNV-1">
          <mxGeometry x="529" y="434" width="20" height="30" as="geometry" />
        </mxCell>
        <mxCell id="8IQMpSymh2OKNN8EFJxy-25" style="edgeStyle=orthogonalEdgeStyle;rounded=0;orthogonalLoop=1;jettySize=auto;html=1;exitX=0;exitY=0;exitDx=51;exitDy=40;exitPerimeter=0;entryX=1;entryY=0.5;entryDx=0;entryDy=0;fontSize=17;" edge="1" parent="WIyWlLk6GJQsqaUBKTNV-1" source="8IQMpSymh2OKNN8EFJxy-19" target="8IQMpSymh2OKNN8EFJxy-20">
          <mxGeometry relative="1" as="geometry" />
        </mxCell>
        <mxCell id="8IQMpSymh2OKNN8EFJxy-19" value="Par" style="shape=display;whiteSpace=wrap;html=1;strokeColor=#000000;gradientColor=#ffffff;fontSize=17;align=center;size=0.34065934065934067;" vertex="1" parent="WIyWlLk6GJQsqaUBKTNV-1">
          <mxGeometry x="350" y="360" width="91" height="40" as="geometry" />
        </mxCell>
        <mxCell id="8IQMpSymh2OKNN8EFJxy-27" style="edgeStyle=orthogonalEdgeStyle;rounded=0;orthogonalLoop=1;jettySize=auto;html=1;exitX=0.5;exitY=1;exitDx=0;exitDy=0;entryX=0.5;entryY=0;entryDx=0;entryDy=0;fontSize=17;" edge="1" parent="WIyWlLk6GJQsqaUBKTNV-1" source="8IQMpSymh2OKNN8EFJxy-20" target="8IQMpSymh2OKNN8EFJxy-22">
          <mxGeometry relative="1" as="geometry" />
        </mxCell>
        <mxCell id="8IQMpSymh2OKNN8EFJxy-20" value="" style="ellipse;whiteSpace=wrap;html=1;aspect=fixed;strokeColor=#000000;gradientColor=#ffffff;fontSize=17;align=center;" vertex="1" parent="WIyWlLk6GJQsqaUBKTNV-1">
          <mxGeometry x="285" y="460" width="20" height="20" as="geometry" />
        </mxCell>
        <mxCell id="8IQMpSymh2OKNN8EFJxy-22" value="INICIO" style="ellipse;whiteSpace=wrap;html=1;fontSize=17;" vertex="1" parent="WIyWlLk6GJQsqaUBKTNV-1">
          <mxGeometry x="240" y="530" width="110" height="30" as="geometry" />
        </mxCell>
        <mxCell id="8IQMpSymh2OKNN8EFJxy-28" value="PAR &amp;amp; IMPAR" style="text;html=1;align=center;verticalAlign=middle;resizable=0;points=[];autosize=1;fontSize=17;" vertex="1" parent="WIyWlLk6GJQsqaUBKTNV-1">
          <mxGeometry x="240" y="40" width="120" height="30" as="geometry" />
        </mxCell>
        <mxCell id="8IQMpSymh2OKNN8EFJxy-33" style="edgeStyle=orthogonalEdgeStyle;rounded=0;orthogonalLoop=1;jettySize=auto;html=1;exitX=0.5;exitY=1;exitDx=0;exitDy=0;entryX=0.488;entryY=0.18;entryDx=0;entryDy=0;entryPerimeter=0;fontSize=17;" edge="1" parent="WIyWlLk6GJQsqaUBKTNV-1" source="8IQMpSymh2OKNN8EFJxy-34" target="8IQMpSymh2OKNN8EFJxy-36">
          <mxGeometry relative="1" as="geometry" />
        </mxCell>
        <mxCell id="8IQMpSymh2OKNN8EFJxy-34" value="INICIO" style="ellipse;whiteSpace=wrap;html=1;fontSize=17;" vertex="1" parent="WIyWlLk6GJQsqaUBKTNV-1">
          <mxGeometry x="566" y="90" width="110" height="30" as="geometry" />
        </mxCell>
        <mxCell id="8IQMpSymh2OKNN8EFJxy-35" style="edgeStyle=orthogonalEdgeStyle;rounded=0;orthogonalLoop=1;jettySize=auto;html=1;exitX=0.5;exitY=1;exitDx=0;exitDy=0;entryX=0.5;entryY=0;entryDx=0;entryDy=0;fontSize=17;" edge="1" parent="WIyWlLk6GJQsqaUBKTNV-1" source="8IQMpSymh2OKNN8EFJxy-36" target="8IQMpSymh2OKNN8EFJxy-39">
          <mxGeometry relative="1" as="geometry" />
        </mxCell>
        <mxCell id="8IQMpSymh2OKNN8EFJxy-36" value="val0:int" style="html=1;strokeWidth=2;shape=manualInput;whiteSpace=wrap;rounded=1;size=26;arcSize=48;fontSize=17;align=center;verticalAlign=bottom;" vertex="1" parent="WIyWlLk6GJQsqaUBKTNV-1">
          <mxGeometry x="581" y="150" width="80" height="50" as="geometry" />
        </mxCell>
        <mxCell id="8IQMpSymh2OKNN8EFJxy-56" style="edgeStyle=orthogonalEdgeStyle;rounded=0;orthogonalLoop=1;jettySize=auto;html=1;exitX=1;exitY=0.5;exitDx=0;exitDy=0;entryX=0.75;entryY=0;entryDx=0;entryDy=0;fontSize=17;" edge="1" parent="WIyWlLk6GJQsqaUBKTNV-1" source="8IQMpSymh2OKNN8EFJxy-39" target="8IQMpSymh2OKNN8EFJxy-55">
          <mxGeometry relative="1" as="geometry" />
        </mxCell>
        <mxCell id="8IQMpSymh2OKNN8EFJxy-57" style="edgeStyle=orthogonalEdgeStyle;rounded=0;orthogonalLoop=1;jettySize=auto;html=1;exitX=0;exitY=0.5;exitDx=0;exitDy=0;entryX=0.25;entryY=0;entryDx=0;entryDy=0;fontSize=17;" edge="1" parent="WIyWlLk6GJQsqaUBKTNV-1" source="8IQMpSymh2OKNN8EFJxy-39" target="8IQMpSymh2OKNN8EFJxy-54">
          <mxGeometry relative="1" as="geometry" />
        </mxCell>
        <mxCell id="8IQMpSymh2OKNN8EFJxy-39" value="val0 &amp;lt;20" style="rhombus;whiteSpace=wrap;html=1;fontSize=17;align=center;" vertex="1" parent="WIyWlLk6GJQsqaUBKTNV-1">
          <mxGeometry x="551" y="250" width="140" height="58" as="geometry" />
        </mxCell>
        <mxCell id="8IQMpSymh2OKNN8EFJxy-62" style="edgeStyle=orthogonalEdgeStyle;rounded=0;orthogonalLoop=1;jettySize=auto;html=1;exitX=0.5;exitY=1;exitDx=0;exitDy=0;entryX=0;entryY=0;entryDx=82.11764705882354;entryDy=0;entryPerimeter=0;fontSize=17;" edge="1" parent="WIyWlLk6GJQsqaUBKTNV-1" source="8IQMpSymh2OKNN8EFJxy-45" target="8IQMpSymh2OKNN8EFJxy-61">
          <mxGeometry relative="1" as="geometry" />
        </mxCell>
        <mxCell id="8IQMpSymh2OKNN8EFJxy-45" value="" style="ellipse;whiteSpace=wrap;html=1;aspect=fixed;strokeColor=#000000;gradientColor=#ffffff;fontSize=17;align=center;" vertex="1" parent="WIyWlLk6GJQsqaUBKTNV-1">
          <mxGeometry x="611" y="470" width="20" height="20" as="geometry" />
        </mxCell>
        <mxCell id="8IQMpSymh2OKNN8EFJxy-46" value="INICIO" style="ellipse;whiteSpace=wrap;html=1;fontSize=17;" vertex="1" parent="WIyWlLk6GJQsqaUBKTNV-1">
          <mxGeometry x="566" y="630" width="110" height="30" as="geometry" />
        </mxCell>
        <mxCell id="8IQMpSymh2OKNN8EFJxy-47" value="Comerciante de Alcogel" style="text;html=1;align=center;verticalAlign=middle;resizable=0;points=[];autosize=1;fontSize=17;" vertex="1" parent="WIyWlLk6GJQsqaUBKTNV-1">
          <mxGeometry x="526" y="50" width="200" height="30" as="geometry" />
        </mxCell>
        <mxCell id="8IQMpSymh2OKNN8EFJxy-52" value="Verdadeiro" style="text;html=1;align=center;verticalAlign=middle;resizable=0;points=[];autosize=1;fontSize=17;" vertex="1" parent="WIyWlLk6GJQsqaUBKTNV-1">
          <mxGeometry x="310" y="230" width="100" height="30" as="geometry" />
        </mxCell>
        <mxCell id="8IQMpSymh2OKNN8EFJxy-53" value="Falso" style="text;html=1;align=center;verticalAlign=middle;resizable=0;points=[];autosize=1;fontSize=17;" vertex="1" parent="WIyWlLk6GJQsqaUBKTNV-1">
          <mxGeometry x="204" y="233" width="60" height="30" as="geometry" />
        </mxCell>
        <mxCell id="8IQMpSymh2OKNN8EFJxy-58" style="edgeStyle=orthogonalEdgeStyle;rounded=0;orthogonalLoop=1;jettySize=auto;html=1;exitX=0.25;exitY=1;exitDx=0;exitDy=0;fontSize=17;entryX=0;entryY=0.5;entryDx=0;entryDy=0;" edge="1" parent="WIyWlLk6GJQsqaUBKTNV-1" source="8IQMpSymh2OKNN8EFJxy-54" target="8IQMpSymh2OKNN8EFJxy-45">
          <mxGeometry relative="1" as="geometry">
            <mxPoint x="630" y="500" as="targetPoint" />
          </mxGeometry>
        </mxCell>
        <mxCell id="8IQMpSymh2OKNN8EFJxy-54" value="venda = val0 * 1.30" style="rounded=0;whiteSpace=wrap;html=1;strokeColor=#000000;gradientColor=#ffffff;fontSize=17;align=center;" vertex="1" parent="WIyWlLk6GJQsqaUBKTNV-1">
          <mxGeometry x="461" y="340" width="159" height="60" as="geometry" />
        </mxCell>
        <mxCell id="8IQMpSymh2OKNN8EFJxy-59" style="edgeStyle=orthogonalEdgeStyle;rounded=0;orthogonalLoop=1;jettySize=auto;html=1;exitX=0.75;exitY=1;exitDx=0;exitDy=0;fontSize=17;entryX=1;entryY=0.5;entryDx=0;entryDy=0;" edge="1" parent="WIyWlLk6GJQsqaUBKTNV-1" source="8IQMpSymh2OKNN8EFJxy-55" target="8IQMpSymh2OKNN8EFJxy-45">
          <mxGeometry relative="1" as="geometry">
            <mxPoint x="720" y="470" as="targetPoint" />
          </mxGeometry>
        </mxCell>
        <mxCell id="8IQMpSymh2OKNN8EFJxy-55" value="venda = val0 * 1.30" style="rounded=0;whiteSpace=wrap;html=1;strokeColor=#000000;gradientColor=#ffffff;fontSize=17;align=center;" vertex="1" parent="WIyWlLk6GJQsqaUBKTNV-1">
          <mxGeometry x="631" y="340" width="159" height="60" as="geometry" />
        </mxCell>
        <mxCell id="8IQMpSymh2OKNN8EFJxy-63" style="edgeStyle=orthogonalEdgeStyle;rounded=0;orthogonalLoop=1;jettySize=auto;html=1;exitX=0;exitY=0;exitDx=82.11764705882354;exitDy=40;exitPerimeter=0;entryX=0.5;entryY=0;entryDx=0;entryDy=0;fontSize=17;" edge="1" parent="WIyWlLk6GJQsqaUBKTNV-1" source="8IQMpSymh2OKNN8EFJxy-61" target="8IQMpSymh2OKNN8EFJxy-46">
          <mxGeometry relative="1" as="geometry" />
        </mxCell>
        <mxCell id="8IQMpSymh2OKNN8EFJxy-61" value="venda" style="shape=display;whiteSpace=wrap;html=1;strokeColor=#000000;gradientColor=#ffffff;fontSize=17;align=center;size=0.19633307868601996;" vertex="1" parent="WIyWlLk6GJQsqaUBKTNV-1">
          <mxGeometry x="537" y="560" width="154" height="40" as="geometry" />
        </mxCell>
        <mxCell id="8IQMpSymh2OKNN8EFJxy-67" value="Verdadeiro" style="text;html=1;align=center;verticalAlign=middle;resizable=0;points=[];autosize=1;fontSize=17;" vertex="1" parent="WIyWlLk6GJQsqaUBKTNV-1">
          <mxGeometry x="684" y="238" width="100" height="30" as="geometry" />
        </mxCell>
        <mxCell id="8IQMpSymh2OKNN8EFJxy-68" value="Falso" style="text;html=1;align=center;verticalAlign=middle;resizable=0;points=[];autosize=1;fontSize=17;" vertex="1" parent="WIyWlLk6GJQsqaUBKTNV-1">
          <mxGeometry x="491" y="246" width="60" height="30" as="geometry" />
        </mxCell>
      </root>
    </mxGraphModel>
  </diagram>
</mxfile>
